<svg width="600" height="600" viewBox="0 0 600 600" fill="none" xmlns="http://www.w3.org/2000/svg">
<path fill-rule="evenodd" clip-rule="evenodd" d="M600 0H0V600H600V0ZM324.879 363.545L300 421L275.121 363.545L206.402 483.5H393.598L324.879 363.545ZM329.84 352.088L405.122 483.5L410.851 493.5H399.327H200.673H189.149L194.878 483.5L270.16 352.088L248.038 301H249.038L249.967 300.357L209.761 258.234L186.553 260.163L186.644 234.016L176.969 223.88L186.706 216.074L186.844 176.514L127.915 53.6287L186.983 136.381L187.076 109.603L193.124 144.985L215.387 176.174L200.008 185.258L206.097 220.875L216.91 237.047L256.547 182.706L224.476 120.353L263.966 172.535L293.445 132.121L269.774 180.209L269.905 180.382L269.591 180.579L231.243 258.484L256.304 295.966L301 265L343.837 294.679L368.038 258.484L329.689 180.579L329.376 180.382L329.507 180.209L305.836 132.121L335.314 172.535L374.804 120.353L342.734 182.706L382.371 237.047L393.184 220.875L399.272 185.258L383.894 176.174L406.156 144.985L412.204 109.603L412.297 136.381L471.365 53.6287L412.437 176.514L412.574 216.074L422.311 223.88L412.636 234.016L412.727 260.163L389.519 258.234L350.396 299.223L352.962 301H351.962L329.84 352.088Z" fill="#292929"/>
</svg>
