<svg width="32" height="32" viewBox="0 0 32 32" fill="none" xmlns="http://www.w3.org/2000/svg">
<path fill-rule="evenodd" clip-rule="evenodd" d="M0 16C0 7.16341 7.16344 -3.05176e-05 16 -3.05176e-05C24.8366 -3.05176e-05 32 7.16341 32 16C32 24.8365 24.8366 32 16 32C7.16344 32 0 24.8365 0 16ZM22.5966 6.9333H9.93676C8.86918 6.9333 8 7.79197 8 8.85597V21.4746C8 22.5386 8.86918 23.3973 9.93676 23.3973H20.6504L20.1496 21.6706L21.3589 22.7813L22.5021 23.8266L24.5333 25.6V8.85597C24.5333 7.79197 23.6642 6.9333 22.5966 6.9333Z" fill="#333333"/>
<path fill-rule="evenodd" clip-rule="evenodd" d="M18.9498 19.1226C18.9498 19.1226 18.6097 18.7213 18.3262 18.3666C19.5639 18.0213 20.0363 17.256 20.0363 17.256C19.6489 17.508 19.2805 17.6853 18.9498 17.8066C18.4774 18.0026 18.0239 18.1333 17.5799 18.208C16.6729 18.376 15.8415 18.3293 15.133 18.1986C14.5944 18.096 14.1315 17.9466 13.7442 17.7973C13.5269 17.7133 13.2907 17.6106 13.0545 17.48C13.0261 17.4613 12.9978 17.452 12.9694 17.4333C12.9506 17.424 12.9411 17.4146 12.9317 17.4053C12.7616 17.312 12.6671 17.2466 12.6671 17.2466C12.6671 17.2466 13.1206 17.9933 14.3205 18.348C14.037 18.7026 13.6875 19.1226 13.6875 19.1226C11.5995 19.0573 10.8059 17.704 10.8059 17.704C10.8059 14.6986 12.1664 12.2626 12.1664 12.2626C13.5269 11.2546 14.8212 11.2826 14.8212 11.2826L14.9157 11.3946C13.2151 11.88 12.4309 12.6173 12.4309 12.6173C12.4309 12.6173 12.6388 12.5053 12.9883 12.3466C13.9992 11.908 14.8023 11.7866 15.133 11.7586C15.1896 11.7493 15.2369 11.74 15.2936 11.74C15.8699 11.6653 16.5218 11.6466 17.202 11.7213C18.0995 11.824 19.0632 12.0853 20.0457 12.6173C20.0457 12.6173 19.2994 11.9173 17.6933 11.432L17.8255 11.2826C17.8255 11.2826 19.1198 11.2546 20.4803 12.2626C20.4803 12.2626 21.8408 14.6986 21.8408 17.704C21.8408 17.704 21.0377 19.0573 18.9498 19.1226ZM14.8227 14.9333C14.2885 14.9333 13.8667 15.4138 13.8667 16C13.8667 16.5862 14.2978 17.0666 14.8227 17.0666C15.357 17.0666 15.7788 16.5862 15.7788 16C15.7882 15.4138 15.357 14.9333 14.8227 14.9333ZM18.2439 14.9333C17.7097 14.9333 17.2879 15.4138 17.2879 16C17.2879 16.5862 17.719 17.0666 18.2439 17.0666C18.7782 17.0666 19.2 16.5862 19.2 16C19.2 15.4138 18.7782 14.9333 18.2439 14.9333Z" fill="#333333"/>
</svg>
