<svg width="32" height="33" viewBox="0 0 32 33" fill="none" xmlns="http://www.w3.org/2000/svg">
<path fill-rule="evenodd" clip-rule="evenodd" d="M16.0289 0.999969C7.20981 0.999969 0.0584717 8.27191 0.0584717 17.243C0.0584717 24.4197 4.63447 30.5084 10.98 32.6562C11.7781 32.8066 12.0712 32.3039 12.0712 31.8748C12.0712 31.4875 12.0564 30.208 12.0495 28.8507C7.6065 29.8333 6.66898 26.9342 6.66898 26.9342C5.9425 25.0567 4.89576 24.5574 4.89576 24.5574C3.44677 23.5493 5.00498 23.57 5.00498 23.57C6.60869 23.6843 7.45312 25.2439 7.45312 25.2439C8.87751 27.7271 11.1892 27.0092 12.1005 26.5942C12.2439 25.5446 12.6577 24.8275 13.1145 24.4221C9.56723 24.0114 5.83831 22.6186 5.83831 16.3946C5.83831 14.6212 6.46217 13.1722 7.48379 12.0347C7.31798 11.6253 6.77133 9.97349 7.6385 7.73609C7.6385 7.73609 8.9796 7.29953 12.0315 9.40109C13.3054 9.04119 14.6716 8.86071 16.0289 8.85452C17.3861 8.86071 18.7533 9.04119 20.0296 9.40109C23.0778 7.29953 24.4171 7.73609 24.4171 7.73609C25.2864 9.97349 24.7395 11.6253 24.5736 12.0347C25.5976 13.1722 26.2173 14.6212 26.2173 16.3946C26.2173 22.6334 22.4812 24.0071 18.925 24.4092C19.4978 24.9133 20.0082 25.9018 20.0082 27.4173C20.0082 29.5904 19.9897 31.3396 19.9897 31.8748C19.9897 32.3071 20.2772 32.8136 21.0867 32.6541C27.4288 30.5038 31.999 24.4173 31.999 17.243C31.999 8.27191 24.8487 0.999969 16.0289 0.999969Z" fill="#333333"/>
<path fill-rule="evenodd" clip-rule="evenodd" d="M6.10726 24.3215C6.07209 24.4025 5.94726 24.4264 5.83355 24.371C5.71771 24.318 5.65265 24.208 5.69021 24.1271C5.72459 24.044 5.84968 24.0211 5.96525 24.0762C6.08135 24.1295 6.14746 24.2406 6.10726 24.3215Z" fill="#333333"/>
<path fill-rule="evenodd" clip-rule="evenodd" d="M6.75414 25.0553C6.67798 25.1271 6.52908 25.0938 6.42806 24.9803C6.3236 24.867 6.30403 24.7156 6.38125 24.6427C6.45979 24.5709 6.60419 24.6045 6.70892 24.7178C6.81338 24.8323 6.83374 24.9827 6.75414 25.0553Z" fill="#333333"/>
<path fill-rule="evenodd" clip-rule="evenodd" d="M7.38383 25.9908C7.28598 26.06 7.12598 25.9951 7.02707 25.8507C6.92921 25.7063 6.92921 25.533 7.02918 25.4636C7.12836 25.3942 7.28598 25.4566 7.38621 25.6C7.48379 25.7466 7.48379 25.9201 7.38383 25.9908Z" fill="#333333"/>
<path fill-rule="evenodd" clip-rule="evenodd" d="M8.2465 26.8946C8.15897 26.9928 7.97252 26.9664 7.83606 26.8325C7.69642 26.7015 7.65755 26.5156 7.74535 26.4174C7.83394 26.319 8.02145 26.3467 8.15897 26.4796C8.29755 26.6103 8.33986 26.7975 8.2465 26.8946Z" fill="#333333"/>
<path fill-rule="evenodd" clip-rule="evenodd" d="M9.43659 27.4194C9.39798 27.5466 9.2184 27.6045 9.03751 27.5504C8.85688 27.4947 8.73867 27.3457 8.77517 27.2171C8.81272 27.0891 8.99308 27.0288 9.1753 27.0867C9.35566 27.1421 9.47414 27.29 9.43659 27.4194Z" fill="#333333"/>
<path fill-rule="evenodd" clip-rule="evenodd" d="M10.7436 27.5168C10.7481 27.6507 10.5947 27.7618 10.4048 27.764C10.2138 27.7686 10.0594 27.6602 10.0573 27.5283C10.0573 27.3931 10.2072 27.283 10.3982 27.2798C10.5881 27.276 10.7436 27.3836 10.7436 27.5168Z" fill="#333333"/>
<path fill-rule="evenodd" clip-rule="evenodd" d="M11.9598 27.3062C11.9826 27.4369 11.8506 27.5711 11.662 27.6066C11.4767 27.6413 11.305 27.5606 11.2815 27.431C11.2585 27.297 11.3928 27.1628 11.5779 27.1281C11.7668 27.0947 11.9358 27.1733 11.9598 27.3062Z" fill="#333333"/>
</svg>
