<svg width="32" height="33" viewBox="0 0 32 33" fill="none" xmlns="http://www.w3.org/2000/svg">
<path fill-rule="evenodd" clip-rule="evenodd" d="M0 16.6841C0 7.84759 7.16344 0.684143 16 0.684143C24.8366 0.684143 32 7.84759 32 16.6841C32 25.5207 24.8366 32.6841 16 32.6841C7.16344 32.6841 0 25.5207 0 16.6841ZM16.0008 8.15081C13.6833 8.15081 13.3924 8.16094 12.4822 8.20237C11.5737 8.24397 10.9536 8.38779 10.4111 8.59881C9.8498 8.81677 9.37371 9.10833 8.89939 9.58282C8.42472 10.0571 8.13316 10.5332 7.91449 11.0943C7.70294 11.6371 7.55893 12.2573 7.51804 13.1654C7.47733 14.0757 7.46667 14.3667 7.46667 16.6842C7.46667 19.0018 7.47698 19.2917 7.51822 20.202C7.56 21.1104 7.70382 21.7305 7.91467 22.2731C8.13281 22.8343 8.42437 23.3104 8.89886 23.7847C9.373 24.2594 9.84909 24.5517 10.41 24.7696C10.9529 24.9807 11.5732 25.1245 12.4815 25.1661C13.3917 25.2075 13.6824 25.2177 15.9997 25.2177C18.3174 25.2177 18.6074 25.2075 19.5176 25.1661C20.4261 25.1245 21.0469 24.9807 21.5898 24.7696C22.1509 24.5517 22.6263 24.2594 23.1004 23.7847C23.5751 23.3104 23.8667 22.8343 24.0853 22.2733C24.2951 21.7305 24.4391 21.1102 24.4818 20.2021C24.5227 19.2919 24.5333 19.0018 24.5333 16.6842C24.5333 14.3667 24.5227 14.0758 24.4818 13.1656C24.4391 12.2572 24.2951 11.6371 24.0853 11.0945C23.8667 10.5332 23.5751 10.0571 23.1004 9.58282C22.6258 9.10815 22.1511 8.81659 21.5893 8.59881C21.0453 8.38779 20.4248 8.24397 19.5164 8.20237C18.6062 8.16094 18.3164 8.15081 15.9981 8.15081H16.0008Z" fill="#333333"/>
<path fill-rule="evenodd" clip-rule="evenodd" d="M15.2353 9.6886C15.4625 9.68825 15.716 9.6886 16.0008 9.6886C18.2792 9.6886 18.5493 9.69678 19.449 9.73767C20.281 9.77572 20.7326 9.91474 21.0334 10.0315C21.4316 10.1862 21.7155 10.3711 22.014 10.6698C22.3127 10.9684 22.4976 11.2529 22.6526 11.6511C22.7694 11.9516 22.9086 12.4031 22.9465 13.2351C22.9874 14.1347 22.9963 14.4049 22.9963 16.6823C22.9963 18.9596 22.9874 19.2299 22.9465 20.1294C22.9084 20.9614 22.7694 21.413 22.6526 21.7134C22.4979 22.1117 22.3127 22.3952 22.014 22.6937C21.7153 22.9924 21.4318 23.1773 21.0334 23.3319C20.7329 23.4493 20.281 23.5879 19.449 23.626C18.5494 23.6669 18.2792 23.6758 16.0008 23.6758C13.7222 23.6758 13.4522 23.6669 12.5526 23.626C11.7206 23.5876 11.269 23.4486 10.968 23.3318C10.5698 23.1771 10.2854 22.9922 9.98669 22.6935C9.68802 22.3949 9.50313 22.1111 9.34811 21.7127C9.23131 21.4123 9.09211 20.9607 9.05424 20.1287C9.01335 19.2291 9.00517 18.9589 9.00517 16.6801C9.00517 14.4014 9.01335 14.1326 9.05424 13.233C9.09228 12.401 9.23131 11.9494 9.34811 11.6486C9.50278 11.2504 9.68802 10.966 9.98669 10.6673C10.2854 10.3686 10.5698 10.1837 10.968 10.0287C11.2688 9.91136 11.7206 9.77269 12.5526 9.73447C13.3398 9.69891 13.6449 9.68825 15.2353 9.68647V9.6886ZM20.5559 11.1055C19.9905 11.1055 19.5319 11.5636 19.5319 12.1292C19.5319 12.6945 19.9905 13.1532 20.5559 13.1532C21.1212 13.1532 21.5799 12.6945 21.5799 12.1292C21.5799 11.5638 21.1212 11.1055 20.5559 11.1055ZM16.0008 12.302C13.5807 12.302 11.6185 14.2641 11.6185 16.6842C11.6185 19.1043 13.5807 21.0656 16.0008 21.0656C18.4209 21.0656 20.3824 19.1043 20.3824 16.6842C20.3824 14.2641 18.4209 12.302 16.0008 12.302Z" fill="#333333"/>
<path fill-rule="evenodd" clip-rule="evenodd" d="M16.0008 13.8398C17.5717 13.8398 18.8453 15.1132 18.8453 16.6842C18.8453 18.2551 17.5717 19.5287 16.0008 19.5287C14.4298 19.5287 13.1563 18.2551 13.1563 16.6842C13.1563 15.1132 14.4298 13.8398 16.0008 13.8398Z" fill="#333333"/>
</svg>
