<svg width="32" height="33" viewBox="0 0 32 33" fill="none" xmlns="http://www.w3.org/2000/svg">
<path fill-rule="evenodd" clip-rule="evenodd" d="M0 16.6841C0 7.84759 7.16344 0.684143 16 0.684143C24.8366 0.684143 32 7.84759 32 16.6841C32 25.5207 24.8366 32.6841 16 32.6841C7.16344 32.6841 0 25.5207 0 16.6841ZM11.307 13.936H7.68108V24.8305H11.307V13.936ZM11.5458 10.5659C11.5223 9.49775 10.7584 8.68414 9.51802 8.68414C8.27761 8.68414 7.46667 9.49775 7.46667 10.5659C7.46667 11.612 8.25364 12.449 9.47095 12.449H9.49413C10.7584 12.449 11.5458 11.612 11.5458 10.5659ZM24.3836 18.584C24.3836 15.2376 22.5948 13.6802 20.2088 13.6802C18.2836 13.6802 17.4217 14.7376 16.9405 15.4794V13.9363H13.3141C13.3619 14.9586 13.3141 24.8308 13.3141 24.8308H16.9405V18.7464C16.9405 18.4208 16.964 18.096 17.0599 17.8629C17.3219 17.2124 17.9186 16.539 18.9203 16.539C20.2329 16.539 20.7576 17.538 20.7576 19.002V24.8305H24.3834L24.3836 18.584Z" fill="#333333"/>
</svg>
