<?xml version="1.0" standalone="no"?>
<!DOCTYPE svg PUBLIC "-//W3C//DTD SVG 20010904//EN"
 "http://www.w3.org/TR/2001/REC-SVG-20010904/DTD/svg10.dtd">
<svg version="1.0" xmlns="http://www.w3.org/2000/svg"
 width="568.000000pt" height="568.000000pt" viewBox="0 0 568.000000 568.000000"
 preserveAspectRatio="xMidYMid meet">
<metadata>
Created by potrace 1.11, written by Peter Selinger 2001-2013
</metadata>
<g transform="translate(0.000000,568.000000) scale(0.100000,-0.100000)"
fill="#000000" stroke="none">
<path d="M40 2800 l0 -2790 2800 0 2800 0 0 2790 0 2790 -2800 0 -2800 0 0
-2790z m1474 1905 c142 -198 261 -361 265 -363 4 -1 8 37 10 85 1 48 4 89 5
91 2 1 13 -59 26 -135 l22 -137 104 -144 c58 -80 103 -146 102 -147 -2 -2 -32
-20 -68 -40 -36 -21 -67 -39 -68 -41 -2 -1 8 -76 23 -166 27 -161 27 -164 77
-241 28 -43 54 -74 58 -70 4 4 87 118 185 253 l179 244 -143 281 c-78 154
-136 273 -129 264 7 -9 87 -113 177 -232 l164 -216 46 62 c26 34 82 110 125
170 43 59 80 107 82 107 3 0 3 -3 1 -7 -2 -5 -129 -261 -281 -571 l-277 -563
117 -174 117 -174 96 67 c53 36 146 101 208 144 l112 78 195 -135 c107 -74
198 -135 203 -135 8 1 216 306 221 326 2 6 -123 267 -278 579 -154 313 -279
569 -278 571 2 1 59 -74 126 -167 68 -93 127 -169 132 -169 4 0 82 99 174 220
92 121 169 220 172 220 5 0 -174 -352 -243 -478 -19 -35 -31 -67 -27 -75 26
-43 357 -487 363 -487 5 0 29 31 54 69 44 67 48 76 72 219 14 82 25 158 25
169 0 13 -21 31 -66 57 -41 23 -64 42 -61 51 3 7 45 68 94 136 49 68 92 130
97 137 4 6 18 76 32 155 13 78 25 144 26 147 1 3 4 -42 7 -99 l6 -105 259 362
c143 199 261 360 263 359 1 -2 -116 -251 -262 -553 l-265 -549 0 -186 0 -185
45 -34 c25 -19 45 -36 45 -40 0 -3 -20 -26 -45 -50 l-45 -44 0 -121 0 -120
-107 8 -107 9 -175 -183 c-104 -107 -177 -191 -177 -203 -1 -12 -48 -126 -104
-254 l-101 -233 375 -654 c207 -360 376 -657 376 -660 0 -3 -463 -5 -1030 -5
-566 0 -1030 2 -1030 5 0 3 169 300 376 659 l375 654 -101 233 c-55 128 -99
238 -96 244 2 6 -80 98 -183 204 l-186 194 -103 -9 c-57 -6 -105 -8 -108 -5
-2 2 -4 57 -4 121 l0 117 -42 48 -42 48 42 36 42 36 0 187 0 188 -261 542
c-258 537 -277 578 -267 568 3 -3 121 -167 262 -365z"/>
<path d="M2457 1948 c-80 -139 -222 -386 -315 -548 l-170 -295 434 -3 c239 -1
629 -1 868 0 l434 3 -313 543 c-171 299 -316 544 -321 544 -5 0 -58 -113 -118
-251 -61 -138 -113 -251 -116 -251 -3 0 -55 113 -115 250 -59 138 -111 253
-116 255 -4 3 -73 -109 -152 -247z"/>
</g>
</svg>
